<?xml version="1.0" encoding="UTF-8"?>
<svg viewBox="0 0 360 500" xmlns="http://www.w3.org/2000/svg" xmlns:xlink="http://www.w3.org/1999/xlink">
 <defs>
  <linearGradient id="e">
   <stop stop-color="#7da75d" offset="0"/>
   <stop stop-color="#7a946c" offset="1"/>
  </linearGradient>
  <linearGradient id="d">
   <stop stop-color="#f2f4f3" stop-opacity=".5" offset="0"/>
   <stop stop-color="#f3f5f4" stop-opacity=".5" offset=".75309"/>
   <stop stop-color="#bdc7c2" stop-opacity=".38191" offset="1"/>
  </linearGradient>
  <linearGradient id="b">
   <stop stop-color="#b3cbcb" stop-opacity=".3" offset="0"/>
   <stop stop-color="#eff0f2" stop-opacity=".02" offset="1"/>
  </linearGradient>
  <linearGradient id="a">
   <stop stop-color="#8aa9b7" stop-opacity=".5" offset="0"/>
   <stop stop-color="#fff" stop-opacity=".5" offset="1"/>
  </linearGradient>
  <linearGradient id="t" x1="-464.66" x2="-115.59" gradientUnits="userSpaceOnUse">
   <stop stop-color="#fff" stop-opacity=".5" offset="0"/>
   <stop stop-color="#edf1f2" stop-opacity=".5" offset="1"/>
  </linearGradient>
  <linearGradient id="q" x1="-322.47" x2="-289.47" y1="102.19" y2="95.188" gradientUnits="userSpaceOnUse">
   <stop stop-color="#deaa87" offset="0"/>
   <stop stop-color="#f4e3d7" offset="1"/>
  </linearGradient>
  <linearGradient id="n" x1="-311.98" x2="-282.52" gradientUnits="userSpaceOnUse">
   <stop stop-color="#b7c9d1" offset="0"/>
   <stop stop-color="#b7c9d1" stop-opacity="0" offset="1"/>
  </linearGradient>
  <linearGradient id="l" x1="211.08" x2="228.29" gradientUnits="userSpaceOnUse">
   <stop stop-color="#dd4652" offset="0"/>
   <stop stop-color="#ff2a2a" offset="1"/>
  </linearGradient>
  <linearGradient id="k" x1="-287.63" x2="-290.8" y1="111.63" y2="141.98" gradientUnits="userSpaceOnUse">
   <stop stop-color="#fff" offset="0"/>
   <stop stop-color="#fff" stop-opacity="0" offset="1"/>
  </linearGradient>
  <linearGradient id="j" x1="-294.75" x2="-294.82" y1="450.89" y2="470.38" gradientUnits="userSpaceOnUse">
   <stop stop-color="#808080" stop-opacity="0" offset="0"/>
   <stop stop-color="#808080" stop-opacity=".58794" offset=".5"/>
   <stop stop-color="#808080" stop-opacity="0" offset="1"/>
  </linearGradient>
  <linearGradient id="v" x1="-377.8" x2="-340.29" y1="169.9" y2="148.12" gradientUnits="userSpaceOnUse" xlink:href="#b"/>
  <linearGradient id="u" x1="-184.63" x2="-215.66" y1="140.09" y2="117.67" gradientUnits="userSpaceOnUse" xlink:href="#b"/>
  <linearGradient id="c" x1="-292.11" x2="-291.86" y1="88.929" y2="24.543" gradientUnits="userSpaceOnUse" xlink:href="#a"/>
  <linearGradient id="s" x1="-293.93" x2="-294.4" y1="507.91" y2="403.73" gradientUnits="userSpaceOnUse" xlink:href="#a"/>
  <linearGradient id="r" x1="-288.43" x2="-296.34" y1="440.95" y2="-101.7" gradientUnits="userSpaceOnUse" xlink:href="#a"/>
  <linearGradient id="p" x1="-289.12" x2="-286.69" y1="153.79" y2="208.15" gradientUnits="userSpaceOnUse" xlink:href="#e"/>
  <linearGradient id="o" x1="-289.8" x2="-290.24" y1="245.82" y2="158.06" gradientUnits="userSpaceOnUse" xlink:href="#b"/>
  <linearGradient id="m" x1="-52.509" x2="-46.917" y1="198.87" y2="178" gradientTransform="matrix(.97318 -.23005 -.23005 -.97318 -182.82 321.75)" gradientUnits="userSpaceOnUse" xlink:href="#e"/>
  <radialGradient id="g" cx="346.31" cy="467.06" r="88.706" gradientTransform="matrix(1.1425 0 0 .11246 -686.71 92.841)" gradientUnits="userSpaceOnUse">
   <stop stop-color="#067f94" stop-opacity=".1" offset="0"/>
   <stop stop-color="#068096" stop-opacity=".09548" offset=".73704"/>
   <stop stop-color="#045766" stop-opacity=".25126" offset="1"/>
  </radialGradient>
  <radialGradient id="f" cx="347.73" cy="719.62" r="72.966" gradientTransform="matrix(.29204 0 0 .06486 -392.28 396.41)" gradientUnits="userSpaceOnUse">
   <stop stop-color="#3a7d74" stop-opacity=".5" offset="0"/>
   <stop stop-color="#00101f" stop-opacity=".5" offset=".29955"/>
   <stop stop-color="#d8d9d8" stop-opacity=".5" offset=".61358"/>
   <stop stop-color="#b7c9d1" stop-opacity=".87843" offset="1"/>
  </radialGradient>
  <radialGradient id="i" cx="-291.9" cy="424.01" r="88.402" gradientTransform="matrix(1 0 0 .66849 0 161.46)" gradientUnits="userSpaceOnUse" xlink:href="#d"/>
  <radialGradient id="h" cx="346.55" cy="429.01" r="88.052" gradientTransform="matrix(1 0 0 .14795 0 356.36)" gradientUnits="userSpaceOnUse" xlink:href="#d"/>
 </defs>
 <g transform="translate(470.12 .34847)">
  <path d="m-458.66 67.107 60.856 12.812 97.369 131.96-11.656 23.661z" fill="url(#v)"/>
  <path d="m-259.72 226.25 138.37-159.51-70.464 24.983-64.058 87.76z" fill="url(#u)"/>
  <path d="m-310.98 439.29s12.436 6.5904 19.218 6.687c7.3898 0.10527 21.139-6.687 21.139-6.687l-10.89-16.655 1.2812-155.66s6.4436-21.601 13.452-31.31c40.924-56.694 134.1-151.18 150.82-176.24 2.5075-3.7574-8.4199-13.702-15.374-16.655-44.488-18.896-100.35-19.889-151.18-19.858-56.865 0.03409-118.13-2.7533-169.11 22.42-5.4154 2.6737-14.562 7.0314-12.812 12.812 5.8704 19.387 108.74 122.98 150.9 176.16 7.257 9.1542 10.89 33.31 10.89 33.31l2.5623 155.94z" fill="url(#t)"/>
  <path d="m-290.47 24.01c-97.09 0-175.81 14.507-175.81 32.425s78.719 32.425 175.81 32.425 175.81-14.507 175.81-32.425-78.719-32.425-175.81-32.425zm0.59902 2.3711c93.851 0 169.94 12.768 169.94 28.572s-76.087 28.631-169.94 28.631-169.94-12.828-169.94-28.631 76.087-28.572 169.94-28.572z" fill="url(#c)"/>
  <path d="m-290.97 426.41c-23.188 0.2141-48.46-1.0798-68.85 9.9652-8.8423 4.7898-20.838 12.633-19.93 22.648 1.3202 14.56 20.95 21.507 34.425 27.178 17.4 7.3218 37.291 7.4632 56.167 7.2474 20.464-0.234 42.502 0.12193 60.697-9.2474 10.403-5.3567 24.779-13.481 24.46-25.178-0.33594-12.323-15.999-19.885-27.178-25.084-18.214-8.4708-39.704-7.7151-59.791-7.5296z" fill="url(#i)"/>
  <path d="m-275.69 424.31c-5.1572-0.0316-10.3 0.0475-15.312 0.0937-23.1 0.21329-48.725-1.187-69.781 10.219-4.4901 2.4322-9.8108 5.6256-14.031 9.6562s-7.4673 9.0631-6.9375 14.906c0.73804 8.1395 6.5899 14.016 13.594 18.438s15.376 7.5924 22.062 10.406c17.894 7.5296 38.066 7.6224 56.969 7.4062 20.425-0.23355 42.796 0.2109 61.594-9.4688 5.2339-2.6951 11.537-6.1059 16.625-10.469s9.0883-9.8519 8.9062-16.531c-0.19074-6.997-4.7164-12.486-10.312-16.75s-12.43-7.4887-18.031-10.094c-14.101-6.5578-29.872-7.7177-45.344-7.8125zm-0.0312 4c15.272 0.11773 30.467 1.289 43.688 7.4375 5.5768 2.5936 12.167 5.7592 17.281 9.6562s8.6048 8.3298 8.75 13.656c0.13677 5.0172-2.8788 9.4435-7.5 13.406s-10.706 7.2759-15.875 9.9375c-17.592 9.059-39.308 8.7968-59.812 9.0312-18.85 0.21554-38.469 0.0203-55.375-7.0938-6.7887-2.8567-14.959-5.9841-21.469-10.094s-11.137-8.9854-11.719-15.406c-0.37829-4.172 1.9263-8.0641 5.6875-11.656s8.8353-6.705 13.188-9.0625c19.724-10.684 44.661-9.5038 67.938-9.7188 5.031-0.0464 10.128-0.13299 15.219-0.0937z" fill="url(#s)"/>
  <path d="m-314.88 20.562c-3.6315 0.0026-7.2634 0.0296-10.906 0.0625-43.715 0.39477-88.077 3.5478-126.84 22.688-2.6919 1.329-6.4331 3.0951-9.4688 5.4688-1.5178 1.1868-2.8951 2.5537-3.8125 4.2188s-1.3053 3.7409-0.6875 5.7812c0.91738 3.0296 3.2703 6.7583 6.7812 11.625s8.1969 10.748 13.781 17.406c11.169 13.317 25.915 29.759 41.781 47.25 31.732 34.982 67.971 74.177 88.938 100.62 3.1435 3.9654 5.9644 12.184 7.75 19.25 1.7683 6.9972 2.6391 12.761 2.6562 12.875l2.5625 155.06-10.5 15.125c-5.8958 6.6519 8.1758-4.3542 8.8438-4.8125l5.75-8.3438 0.4375-0.59375-0.0312-0.71875-2.5625-155.97v-0.125l-0.0312-0.15625s-0.90492-6.1366-2.75-13.438-4.4803-15.749-8.5938-20.938c-21.19-26.73-57.447-65.918-89.156-100.88-15.855-17.479-30.568-33.904-41.656-47.125-5.5439-6.6105-10.191-12.408-13.594-17.125s-5.5435-8.4642-6.0938-10.281c-0.25733-0.8498-0.16203-1.4825 0.3125-2.3438s1.398-1.8531 2.625-2.8125c2.4539-1.9188 5.9952-3.6554 8.7188-5 37.716-18.621 81.402-21.761 124.91-22.188 14.501-0.14205 28.984 0.0085 43.219 0 50.795-0.03045 106.39 1.0458 150.28 19.688 3.0311 1.2874 7.4492 4.4143 10.531 7.5312 1.541 1.5585 2.7656 3.1361 3.375 4.3125s0.42241 1.5382 0.46875 1.4688c-8.0156 12.011-35.617 42.15-66.125 76s-64.036 71.664-84.625 100.19c-3.7762 5.2314-7.1399 13.121-9.6562 19.812s-4.125 12.156-4.125 12.156l-0.0937 0.3125v0.3125l-1.2812 155.69-0.0312 0.65625 0.375 0.59375 6.6875 10.188c-0.4637-1.0213-1.2814-2.0312-1.2814-2.0312l10.562 8-1.3125-1.9688-10.5-16.062 1.2812-154.66c0.073-0.24377 1.538-5.2124 3.9375-11.594 2.4576-6.5359 5.8301-14.303 9.0625-18.781 20.335-28.171 53.854-65.95 84.344-99.781s57.823-63.483 66.531-76.531c1.3001-1.9481 0.70161-4.1941-0.25-6.0312s-2.4096-3.6398-4.1562-5.4062c-3.4933-3.5329-8.0457-6.865-11.969-8.5312-45.086-19.149-101.18-20.062-152.03-20.031-10.648 0.0064-21.481-0.10147-32.375-0.09375zm37.25 419.38-1.5938 0.625-0.28125 0.0937c0.0846-7e-3 0.55221-0.0264 0.59375-0.0312 0.31332-0.0364 0.80477-0.32963 1.2812-0.6875z" fill="url(#r)"/>
  <path transform="matrix(1.1495 0 0 .99845 -689.6 -276.2)" d="m434.1 418.24c0 6.9188-39.199 12.528-87.552 12.528s-87.552-5.6088-87.552-12.528 39.199-12.528 87.552-12.528 87.552 5.6088 87.552 12.528z" fill="url(#h)"/>
  <path d="m-332.47 3.8125s19.865 91.029 26.844 123.03c5.2027 23.857 6.6989 31.004 13 59.719h3.1562c-3.237-20.599-7.1165-43.707-10.5-59.531-8.8809-41.536-32.5-123.22-32.5-123.22z" fill="url(#q)"/>
  <path d="m-335.06 152.59 85.533 1.8118s-3.5446-7.8962-6.6237-10.777c-1.4693-1.3747-3.3651-2.434-5.3415-2.8118-15.564 2.6734-28.321 4.7328-42.578 2.7178-4.9668-0.74758-9.4193-5.0791-14.401-4.4355-3.9146 0.50576-7.0317 3.7148-10.059 6.2474-2.4941 2.0863-6.5296 7.2474-6.5296 7.2474z" fill="#c3d5af"/>
  <path d="m-317.45 153.82s-10.13 11.083-12.307 18.024c-2.1686 6.9156-3.8901 15.511-0.18816 21.742 5.2442 8.8268 17.084 12.613 27.178 14.495 12.261 2.2858 25.864 0.79632 37.143-4.5296 7.9187-3.7394 14.986-10.348 19.024-18.118 2.8165-5.4188 3.1875-12.03 2.7178-18.118-0.38938-5.047-4.5296-14.495-4.5296-14.495z" fill="url(#p)"/>
  <path d="m-205.72 135.8s-8.99 3.4922-10.92 4.6477-15.287 1.0799-17.216 1.0799-6.4325 3.458-8.0406 4.3823-3.5379 3.0128-5.146 4.3993-32.163 1.8488-49.209 1.8488-43.419-2.7732-45.028-3.6975 4.6081-2.7774 3.6432-4.3951-11.076 1.1555-13.327 0.92439-10-5.5421-10.965-6.9286-17.164-1.7989-17.164-1.7989-12.739 2.6531-12.739 5.6573 16.781 12.966 99.117 13.012c84.251 0.0466 102.43-9.8794 102.43-12.581s-7.0081-4.768-15.433-6.5505z" fill="url(#g)"/>
  <path d="m-278.01 432.03s2.2966 2.8382 1.3726 3.8136-4.4522 2.4385-4.1162 3.0238 4.2842-0.9754 4.5362-0.58524-1.8481 2.2435-2.6881 2.341-8.3184-2.8996-11.841-2.8193c-4.2303 0.0964-13.696 2.1119-14.116 1.9168s-1.6431-0.65821-1.3911-1.1459 2.4832 1.073 2.8192 0.39016-0.50085-5.8368-0.50085-5.8368l-10.348 7.1103s12.35 7.9948 22.757 7.9948 24.242-8.0602 24.242-8.0602z" fill="url(#f)"/>
  <path d="m-384.11 147.67 79.721 87.875s9.0505 9.1048 14.871 9.1533c5.6759 0.0473 14.648-8.6829 14.648-8.6829l72.85-85.627-10.871 6.7178s-40.806 55.002-59.073 68.756c-4.4872 3.3786-10.69 4.1885-16.307 4.2474-5.2124 0.0546-10.785-0.87234-15.213-3.6237-23.484-14.593-69.756-73.38-69.756-73.38z" fill="url(#o)"/>
  <path d="m-300.31 435.75h19.213l-4.7178-9.9652s1.0446-99.954-0.0941-158.5c-0.13257-6.8166 7.8885-22.871 7.8885-22.871s-8.0071 6.8828-12.777 6.5296c-5.1812-0.3836-12.683-9.0592-12.683-9.0592s4.3606 12.949 4.5296 16.871c2.6455 61.4 4.0766 169.75 4.0766 169.75-3.8073 2.4786-6.0628 2.8566-5.4355 7.2474z" fill="url(#n)"/>
  <path d="m-287.81 197.41c-0.77273 0.19897-1.5016 0.53818-2.2188 1 3.5774 16.306 7.375 33.688 7.375 33.688s-2.1705-15.209-5.1562-34.688z" fill="#deaa87"/>
  <path d="m-288.61 131.44c-8.7425-6e-3 -17.595 1.8752-25.438 5.3438-2.3272 1.0293-4.7461 2.2076-7.0938 3.5312 0.84379-0.37566 1.733-0.66197 2.6562-0.78125 4.9814-0.64358 9.4394 3.6899 14.406 4.4375 14.258 2.015 26.999-0.0453 42.562-2.7188 1.9763 0.37786 3.8744 1.4378 5.3438 2.8125 0.91865 0.85947 1.8861 2.1838 2.7812 3.5938h0.59375c-0.42334-0.60713-0.89191-1.1896-1.375-1.75-5.718-6.6328-14.121-11.433-22.688-13.25-3.8128-0.80891-7.7761-1.216-11.75-1.2188z" fill="url(#m)"/>
  <path transform="matrix(.97632 .21634 -.21634 .97632 -435.4 -23.863)" d="m228.29 157.63c0 6.5043-3.8532 11.777-8.6063 11.777s-8.6063-5.2727-8.6063-11.777 3.8532-11.777 8.6063-11.777 8.6063 5.2728 8.6063 11.777z" fill="url(#l)" opacity=".82274"/>
  <path d="m-290.47 24.01c-97.09 0-175.81 14.507-175.81 32.425s78.719 32.425 175.81 32.425 175.81-14.507 175.81-32.425-78.719-32.425-175.81-32.425zm0.59902 2.3711c93.851 0 169.94 12.768 169.94 28.572s-76.087 28.631-169.94 28.631-169.94-12.828-169.94-28.631 76.087-28.572 169.94-28.572z" fill="url(#c)"/>
  <path d="m-308.47 137.44s10.177-2.7958 15.401-3.3589c4.9539-0.53394 10.059-0.96135 14.948 0 3.5215 0.69245 9.9652 4.0766 9.9652 4.0766s-11.081 2.8824-16.76 3.1707c-5.2971 0.26899-10.657-0.29761-15.854-1.3589-2.6471-0.5406-7.7004-2.5296-7.7004-2.5296z" fill="url(#k)"/>
  <path d="m-337.34 448.71s27.135 18.257 42.672 18.836c16.893 0.63022 47.791-16.965 47.791-16.965s-31.375 11.727-47.697 11.188c-14.897-0.49153-42.767-13.059-42.767-13.059z" fill="url(#j)" opacity=".73913"/>
 </g>
</svg>
